<svg width="59" height="60" viewBox="0 0 59 60" fill="none" xmlns="http://www.w3.org/2000/svg">
<path d="M4.96483 43.921L29.4324 1.54199L53.8999 43.921H4.96483Z" stroke="black"/>
<path d="M21.4648 33.8447C21.2648 33.3847 20.9581 33.0247 20.5448 32.7647C20.1381 32.498 19.6581 32.3647 19.1048 32.3647C18.5848 32.3647 18.1181 32.4847 17.7048 32.7247C17.2915 32.9647 16.9648 33.308 16.7248 33.7547C16.4848 34.1947 16.3648 34.708 16.3648 35.2947C16.3648 35.8813 16.4848 36.398 16.7248 36.8447C16.9648 37.2913 17.2915 37.6347 17.7048 37.8747C18.1181 38.1147 18.5848 38.2347 19.1048 38.2347C19.5915 38.2347 20.0281 38.1313 20.4148 37.9247C20.8081 37.7113 21.1215 37.4113 21.3548 37.0247C21.5948 36.6313 21.7315 36.1747 21.7648 35.6547H18.8248V35.0847H22.5048V35.5947C22.4715 36.208 22.3048 36.7647 22.0048 37.2647C21.7048 37.758 21.3015 38.148 20.7948 38.4347C20.2948 38.7213 19.7315 38.8647 19.1048 38.8647C18.4581 38.8647 17.8715 38.7147 17.3448 38.4147C16.8181 38.108 16.4015 37.6847 16.0948 37.1447C15.7948 36.598 15.6448 35.9813 15.6448 35.2947C15.6448 34.608 15.7948 33.9947 16.0948 33.4547C16.4015 32.908 16.8181 32.4847 17.3448 32.1847C17.8715 31.878 18.4581 31.7247 19.1048 31.7247C19.8515 31.7247 20.5048 31.9113 21.0648 32.2847C21.6248 32.658 22.0315 33.178 22.2848 33.8447H21.4648ZM24.4871 34.3047C24.6404 33.9647 24.8737 33.7013 25.1871 33.5147C25.5071 33.328 25.8971 33.2347 26.3571 33.2347V33.9647H26.1671C25.6604 33.9647 25.2537 34.1013 24.9471 34.3747C24.6404 34.648 24.4871 35.1047 24.4871 35.7447V38.7947H23.7871V33.3347H24.4871V34.3047ZM27.0901 36.0547C27.0901 35.4947 27.2001 35.0047 27.4201 34.5847C27.6468 34.158 27.9568 33.8313 28.3501 33.6047C28.7501 33.3713 29.2001 33.2547 29.7001 33.2547C30.2201 33.2547 30.6668 33.3747 31.0401 33.6147C31.4201 33.8547 31.6934 34.1613 31.8601 34.5347V33.3347H32.5601V38.7947H31.8601V37.5847C31.6868 37.958 31.4101 38.268 31.0301 38.5147C30.6568 38.7547 30.2101 38.8747 29.6901 38.8747C29.1968 38.8747 28.7501 38.758 28.3501 38.5247C27.9568 38.2913 27.6468 37.9613 27.4201 37.5347C27.2001 37.108 27.0901 36.6147 27.0901 36.0547ZM31.8601 36.0647C31.8601 35.6247 31.7701 35.238 31.5901 34.9047C31.4101 34.5713 31.1634 34.3147 30.8501 34.1347C30.5434 33.9547 30.2034 33.8647 29.8301 33.8647C29.4434 33.8647 29.0968 33.9513 28.7901 34.1247C28.4834 34.298 28.2401 34.5513 28.0601 34.8847C27.8868 35.2113 27.8001 35.6013 27.8001 36.0547C27.8001 36.5013 27.8868 36.8947 28.0601 37.2347C28.2401 37.568 28.4834 37.8247 28.7901 38.0047C29.0968 38.178 29.4434 38.2647 29.8301 38.2647C30.2034 38.2647 30.5434 38.1747 30.8501 37.9947C31.1634 37.8147 31.4101 37.558 31.5901 37.2247C31.7701 36.8913 31.8601 36.5047 31.8601 36.0647ZM36.3082 33.9247H35.0382V38.7947H34.3382V33.9247H33.5782V33.3347H34.3382V32.9547C34.3382 32.3613 34.4882 31.9247 34.7882 31.6447C35.0948 31.3647 35.5882 31.2247 36.2682 31.2247V31.8247C35.8148 31.8247 35.4948 31.9113 35.3082 32.0847C35.1282 32.258 35.0382 32.548 35.0382 32.9547V33.3347H36.3082V33.9247ZM37.7601 32.3047C37.6201 32.3047 37.5001 32.2547 37.4001 32.1547C37.3001 32.0547 37.2501 31.9313 37.2501 31.7847C37.2501 31.638 37.3001 31.518 37.4001 31.4247C37.5001 31.3247 37.6201 31.2747 37.7601 31.2747C37.9001 31.2747 38.0201 31.3247 38.1201 31.4247C38.2201 31.518 38.2701 31.638 38.2701 31.7847C38.2701 31.9313 38.2201 32.0547 38.1201 32.1547C38.0201 32.2547 37.9001 32.3047 37.7601 32.3047ZM38.1101 33.3347V38.7947H37.4101V33.3347H38.1101ZM42.6453 38.7947L40.3953 36.3447V38.7947H39.6953V31.3947H40.3953V35.7747L42.5953 33.3347H43.5753L40.9853 36.0547L43.5953 38.7947H42.6453Z" fill="black"/>
</svg>
