<svg width="60" height="60" viewBox="0 0 60 60" fill="none" xmlns="http://www.w3.org/2000/svg">
<path d="M5.69139 43.921L30.1589 1.54199L54.6265 43.921H5.69139Z" stroke="black"/>
<path d="M22.1914 33.8447C21.9914 33.3847 21.6847 33.0247 21.2714 32.7647C20.8647 32.498 20.3847 32.3647 19.8314 32.3647C19.3114 32.3647 18.8447 32.4847 18.4314 32.7247C18.018 32.9647 17.6914 33.308 17.4514 33.7547C17.2114 34.1947 17.0914 34.708 17.0914 35.2947C17.0914 35.8813 17.2114 36.398 17.4514 36.8447C17.6914 37.2913 18.018 37.6347 18.4314 37.8747C18.8447 38.1147 19.3114 38.2347 19.8314 38.2347C20.318 38.2347 20.7547 38.1313 21.1414 37.9247C21.5347 37.7113 21.848 37.4113 22.0814 37.0247C22.3214 36.6313 22.458 36.1747 22.4914 35.6547H19.5514V35.0847H23.2314V35.5947C23.198 36.208 23.0314 36.7647 22.7314 37.2647C22.4314 37.758 22.028 38.148 21.5214 38.4347C21.0214 38.7213 20.458 38.8647 19.8314 38.8647C19.1847 38.8647 18.598 38.7147 18.0714 38.4147C17.5447 38.108 17.128 37.6847 16.8214 37.1447C16.5214 36.598 16.3714 35.9813 16.3714 35.2947C16.3714 34.608 16.5214 33.9947 16.8214 33.4547C17.128 32.908 17.5447 32.4847 18.0714 32.1847C18.598 31.878 19.1847 31.7247 19.8314 31.7247C20.578 31.7247 21.2314 31.9113 21.7914 32.2847C22.3514 32.658 22.758 33.178 23.0114 33.8447H22.1914ZM25.2136 34.3047C25.367 33.9647 25.6003 33.7013 25.9136 33.5147C26.2336 33.328 26.6236 33.2347 27.0836 33.2347V33.9647H26.8936C26.387 33.9647 25.9803 34.1013 25.6736 34.3747C25.367 34.648 25.2136 35.1047 25.2136 35.7447V38.7947H24.5136V33.3347H25.2136V34.3047ZM27.8167 36.0547C27.8167 35.4947 27.9267 35.0047 28.1467 34.5847C28.3733 34.158 28.6833 33.8313 29.0767 33.6047C29.4767 33.3713 29.9267 33.2547 30.4267 33.2547C30.9467 33.2547 31.3933 33.3747 31.7667 33.6147C32.1467 33.8547 32.42 34.1613 32.5867 34.5347V33.3347H33.2867V38.7947H32.5867V37.5847C32.4133 37.958 32.1367 38.268 31.7567 38.5147C31.3833 38.7547 30.9367 38.8747 30.4167 38.8747C29.9233 38.8747 29.4767 38.758 29.0767 38.5247C28.6833 38.2913 28.3733 37.9613 28.1467 37.5347C27.9267 37.108 27.8167 36.6147 27.8167 36.0547ZM32.5867 36.0647C32.5867 35.6247 32.4967 35.238 32.3167 34.9047C32.1367 34.5713 31.89 34.3147 31.5767 34.1347C31.27 33.9547 30.93 33.8647 30.5567 33.8647C30.17 33.8647 29.8233 33.9513 29.5167 34.1247C29.21 34.298 28.9667 34.5513 28.7867 34.8847C28.6133 35.2113 28.5267 35.6013 28.5267 36.0547C28.5267 36.5013 28.6133 36.8947 28.7867 37.2347C28.9667 37.568 29.21 37.8247 29.5167 38.0047C29.8233 38.178 30.17 38.2647 30.5567 38.2647C30.93 38.2647 31.27 38.1747 31.5767 37.9947C31.89 37.8147 32.1367 37.558 32.3167 37.2247C32.4967 36.8913 32.5867 36.5047 32.5867 36.0647ZM37.0347 33.9247H35.7647V38.7947H35.0647V33.9247H34.3047V33.3347H35.0647V32.9547C35.0647 32.3613 35.2147 31.9247 35.5147 31.6447C35.8214 31.3647 36.3147 31.2247 36.9947 31.2247V31.8247C36.5414 31.8247 36.2214 31.9113 36.0347 32.0847C35.8547 32.258 35.7647 32.548 35.7647 32.9547V33.3347H37.0347V33.9247ZM38.4867 32.3047C38.3467 32.3047 38.2267 32.2547 38.1267 32.1547C38.0267 32.0547 37.9767 31.9313 37.9767 31.7847C37.9767 31.638 38.0267 31.518 38.1267 31.4247C38.2267 31.3247 38.3467 31.2747 38.4867 31.2747C38.6267 31.2747 38.7467 31.3247 38.8467 31.4247C38.9467 31.518 38.9967 31.638 38.9967 31.7847C38.9967 31.9313 38.9467 32.0547 38.8467 32.1547C38.7467 32.2547 38.6267 32.3047 38.4867 32.3047ZM38.8367 33.3347V38.7947H38.1367V33.3347H38.8367ZM43.3718 38.7947L41.1218 36.3447V38.7947H40.4218V31.3947H41.1218V35.7747L43.3218 33.3347H44.3018L41.7118 36.0547L44.3218 38.7947H43.3718Z" fill="black"/>
</svg>
