<svg width="44" height="45" viewBox="0 0 44 45" fill="none" xmlns="http://www.w3.org/2000/svg">
<rect x="0.572144" y="1.04199" width="42.7156" height="42.7156" stroke="black"/>
<path d="M12.8463 19.2942V26.1942H12.1463V20.6842L9.68631 26.1942H9.17631L6.71631 20.7042V26.1942H6.01631V19.2942H6.75631L9.42631 25.2742L12.0963 19.2942H12.8463ZM16.8243 26.2742C16.3109 26.2742 15.8476 26.1608 15.4343 25.9342C15.0276 25.7008 14.7043 25.3742 14.4643 24.9542C14.2309 24.5275 14.1143 24.0308 14.1143 23.4642C14.1143 22.8975 14.2343 22.4042 14.4743 21.9842C14.7143 21.5575 15.0409 21.2308 15.4543 21.0042C15.8676 20.7708 16.3309 20.6542 16.8443 20.6542C17.3576 20.6542 17.8209 20.7708 18.2343 21.0042C18.6543 21.2308 18.9809 21.5575 19.2143 21.9842C19.4543 22.4042 19.5743 22.8975 19.5743 23.4642C19.5743 24.0242 19.4543 24.5175 19.2143 24.9442C18.9743 25.3708 18.6443 25.7008 18.2243 25.9342C17.8043 26.1608 17.3376 26.2742 16.8243 26.2742ZM16.8243 25.6642C17.1843 25.6642 17.5176 25.5842 17.8243 25.4242C18.1309 25.2575 18.3776 25.0108 18.5643 24.6842C18.7576 24.3508 18.8543 23.9442 18.8543 23.4642C18.8543 22.9842 18.7609 22.5808 18.5743 22.2542C18.3876 21.9208 18.1409 21.6742 17.8343 21.5142C17.5276 21.3475 17.1943 21.2642 16.8343 21.2642C16.4743 21.2642 16.1409 21.3475 15.8343 21.5142C15.5276 21.6742 15.2809 21.9208 15.0943 22.2542C14.9143 22.5808 14.8243 22.9842 14.8243 23.4642C14.8243 23.9442 14.9143 24.3508 15.0943 24.6842C15.2809 25.0108 15.5243 25.2575 15.8243 25.4242C16.1309 25.5842 16.4643 25.6642 16.8243 25.6642ZM21.7603 21.3242V24.7142C21.7603 25.0475 21.8236 25.2775 21.9503 25.4042C22.077 25.5308 22.3003 25.5942 22.6203 25.5942H23.2603V26.1942H22.5103C22.017 26.1942 21.6503 26.0808 21.4103 25.8542C21.1703 25.6208 21.0503 25.2408 21.0503 24.7142V21.3242H20.2903V20.7342H21.0503V19.3642H21.7603V20.7342H23.2603V21.3242H21.7603ZM24.7647 19.7042C24.6247 19.7042 24.5047 19.6542 24.4047 19.5542C24.3047 19.4542 24.2547 19.3308 24.2547 19.1842C24.2547 19.0375 24.3047 18.9175 24.4047 18.8242C24.5047 18.7242 24.6247 18.6742 24.7647 18.6742C24.9047 18.6742 25.0247 18.7242 25.1247 18.8242C25.2247 18.9175 25.2747 19.0375 25.2747 19.1842C25.2747 19.3308 25.2247 19.4542 25.1247 19.5542C25.0247 19.6542 24.9047 19.7042 24.7647 19.7042ZM25.1147 20.7342V26.1942H24.4147V20.7342H25.1147ZM29.0899 26.2742C28.5766 26.2742 28.1132 26.1608 27.6999 25.9342C27.2932 25.7008 26.9699 25.3742 26.7299 24.9542C26.4966 24.5275 26.3799 24.0308 26.3799 23.4642C26.3799 22.8975 26.4999 22.4042 26.7399 21.9842C26.9799 21.5575 27.3066 21.2308 27.7199 21.0042C28.1332 20.7708 28.5966 20.6542 29.1099 20.6542C29.6232 20.6542 30.0866 20.7708 30.4999 21.0042C30.9199 21.2308 31.2466 21.5575 31.4799 21.9842C31.7199 22.4042 31.8399 22.8975 31.8399 23.4642C31.8399 24.0242 31.7199 24.5175 31.4799 24.9442C31.2399 25.3708 30.9099 25.7008 30.4899 25.9342C30.0699 26.1608 29.6032 26.2742 29.0899 26.2742ZM29.0899 25.6642C29.4499 25.6642 29.7832 25.5842 30.0899 25.4242C30.3966 25.2575 30.6432 25.0108 30.8299 24.6842C31.0232 24.3508 31.1199 23.9442 31.1199 23.4642C31.1199 22.9842 31.0266 22.5808 30.8399 22.2542C30.6532 21.9208 30.4066 21.6742 30.0999 21.5142C29.7932 21.3475 29.4599 21.2642 29.0999 21.2642C28.7399 21.2642 28.4066 21.3475 28.0999 21.5142C27.7932 21.6742 27.5466 21.9208 27.3599 22.2542C27.1799 22.5808 27.0899 22.9842 27.0899 23.4642C27.0899 23.9442 27.1799 24.3508 27.3599 24.6842C27.5466 25.0108 27.7899 25.2575 28.0899 25.4242C28.3966 25.5842 28.7299 25.6642 29.0899 25.6642ZM35.6759 20.6342C36.3293 20.6342 36.8626 20.8375 37.2759 21.2442C37.6893 21.6442 37.8959 22.2275 37.8959 22.9942V26.1942H37.2059V23.0742C37.2059 22.4808 37.0559 22.0275 36.7559 21.7142C36.4626 21.4008 36.0593 21.2442 35.5459 21.2442C35.0193 21.2442 34.5993 21.4108 34.2859 21.7442C33.9726 22.0775 33.8159 22.5675 33.8159 23.2142V26.1942H33.1159V20.7342H33.8159V21.6642C33.9893 21.3308 34.2393 21.0775 34.5659 20.9042C34.8926 20.7242 35.2626 20.6342 35.6759 20.6342Z" fill="black"/>
</svg>
