<svg width="45" height="45" viewBox="0 0 45 45" fill="none" xmlns="http://www.w3.org/2000/svg">
<circle cx="22.6198" cy="22.3998" r="21.3578" stroke="black"/>
<path d="M11.2039 19.2042V23.6042C11.2039 24.2975 11.3672 24.8108 11.6939 25.1442C12.0272 25.4775 12.4806 25.6442 13.0539 25.6442C13.6272 25.6442 14.0739 25.4808 14.3939 25.1542C14.7206 24.8208 14.8839 24.3042 14.8839 23.6042V19.2042H15.5839V23.5942C15.5839 24.4808 15.3472 25.1475 14.8739 25.5942C14.4072 26.0408 13.7972 26.2642 13.0439 26.2642C12.2906 26.2642 11.6772 26.0408 11.2039 25.5942C10.7372 25.1475 10.5039 24.4808 10.5039 23.5942V19.2042H11.2039ZM19.6652 22.7042L21.7852 26.1942H21.0052L19.2252 23.2742L17.5352 26.1942H16.7552L18.8652 22.6742L16.7552 19.2042H17.5352L19.3052 22.1142L21.0152 19.2042H21.7952L19.6652 22.7042ZM26.1048 16.7942L23.3448 27.8542H22.6548L25.3948 16.7942H26.1048ZM28.0789 19.2042V23.6042C28.0789 24.2975 28.2422 24.8108 28.5689 25.1442C28.9022 25.4775 29.3556 25.6442 29.9289 25.6442C30.5022 25.6442 30.9489 25.4808 31.2689 25.1542C31.5956 24.8208 31.7589 24.3042 31.7589 23.6042V19.2042H32.4589V23.5942C32.4589 24.4808 32.2222 25.1475 31.7489 25.5942C31.2822 26.0408 30.6722 26.2642 29.9189 26.2642C29.1656 26.2642 28.5522 26.0408 28.0789 25.5942C27.6122 25.1475 27.3789 24.4808 27.3789 23.5942V19.2042H28.0789ZM34.7202 19.2042V26.1942H34.0202V19.2042H34.7202Z" fill="black"/>
</svg>
